<svg width="800" height="1100" viewBox="0 0 800 1100" fill="none" xmlns="http://www.w3.org/2000/svg">
<rect width="800" height="1100" fill="white"/>
<g opacity="0.3">
<path d="M666.006 126.568H669.779C672.54 126.568 674.779 128.807 674.779 131.568V281.915C674.779 284.677 672.54 286.915 669.779 286.915H536.976C534.215 286.915 531.976 284.677 531.976 281.915V278.347" stroke="#FDCFD3" stroke-width="4"/>
<path d="M523 135.544H665.803V273.346C665.803 276.108 663.564 278.346 660.803 278.346H528C525.239 278.346 523 276.108 523 273.346V135.544Z" fill="white" stroke="#FDCFD3" stroke-width="4"/>
<path d="M523 123C523 120.239 525.239 118 528 118H660.803C663.564 118 665.803 120.239 665.803 123V135.544H523V123Z" stroke="#FDCFD3" stroke-width="4"/>
<path d="M627.042 129.017H633.162" stroke="#FDCFD3" stroke-width="2"/>
<path d="M651.93 124.12L657.124 129.313M657.124 124.12L651.93 129.313" stroke="#FDCFD3" stroke-width="2"/>
<rect x="640.69" y="124.712" width="3.7121" height="3.7121" stroke="#FDCFD3" stroke-width="2"/>
</g>
<path d="M644.586 182.723H704.971V237.253C704.971 237.666 704.606 238 704.155 238H645.402C644.952 238 644.586 237.666 644.586 237.253V182.723Z" fill="white"/>
<path d="M644.586 176.747C644.586 176.334 644.952 176 645.402 176H704.155C704.606 176 704.971 176.334 704.971 176.747V182.723H644.586V176.747Z" fill="white"/>
<path d="M644.586 182.723H704.971M644.586 182.723V237.253C644.586 237.666 644.952 238 645.402 238H704.155C704.606 238 704.971 237.666 704.971 237.253V182.723M644.586 182.723V176.747C644.586 176.334 644.952 176 645.402 176H704.155C704.606 176 704.971 176.334 704.971 176.747V182.723" stroke="white" stroke-width="10"/>
<g opacity="0.3">
<path d="M644.586 180.425H704.971M644.586 180.425V239.994C644.586 240.445 644.952 240.81 645.402 240.81H704.155C704.606 240.81 704.971 240.445 704.971 239.994V180.425M644.586 180.425V173.897C644.586 173.446 644.952 173.081 645.402 173.081H704.155C704.606 173.081 704.971 173.446 704.971 173.897V180.425" stroke="#FDCFD3" stroke-width="4"/>
</g>
<g opacity="0.3">
<path d="M175.994 451.322L176.38 453.034C176.55 453.788 177.138 454.376 177.891 454.546L179.604 454.932L177.891 455.317C177.138 455.487 176.55 456.075 176.38 456.829L175.994 458.541L175.608 456.829C175.439 456.075 174.85 455.487 174.097 455.317L172.385 454.932L174.097 454.546C174.85 454.376 175.439 453.788 175.608 453.034L175.994 451.322Z" fill="#FDCFD3" stroke="#FDCFD3" stroke-width="2"/>
<circle cx="167.222" cy="461.664" r="1.42803" fill="#FDCFD3"/>
</g>
<g opacity="0.3">
<path d="M320.432 707.32V715.766C320.432 716.87 321.328 717.766 322.432 717.766H332.353M320.432 707.32L332.353 717.766M320.432 707.32H296C294.895 707.32 294 708.216 294 709.32V755.097C294 756.202 294.895 757.097 296 757.097H330.353C331.457 757.097 332.353 756.202 332.353 755.097V717.766" stroke="#FDCFD3" stroke-width="4"/>
<path d="M338.513 748.937H304.16C303.056 748.937 302.16 748.042 302.16 746.937V701.16C302.16 700.056 303.056 699.16 304.16 699.16H328.592L340.513 709.606V746.937C340.513 748.042 339.617 748.937 338.513 748.937Z" fill="white"/>
<path d="M328.592 699.16V707.606C328.592 708.71 329.488 709.606 330.592 709.606H340.513M328.592 699.16L340.513 709.606M328.592 699.16H304.16C303.056 699.16 302.16 700.056 302.16 701.16V746.937C302.16 748.042 303.056 748.937 304.16 748.937H338.513C339.617 748.937 340.513 748.042 340.513 746.937V709.606" stroke="#FDCFD3" stroke-width="4"/>
<path d="M312.32 740.777H346.673C347.778 740.777 348.673 739.881 348.673 738.777V702.352C348.673 701.776 348.424 701.228 347.991 700.848L337.318 691.496C336.954 691.176 336.485 691 336 691H312.32C311.216 691 310.32 691.895 310.32 693V738.777C310.32 739.881 311.216 740.777 312.32 740.777Z" fill="white" stroke="#FDCFD3" stroke-width="4"/>
<path d="M336.752 691V699.445C336.752 700.55 337.648 701.445 338.752 701.445H348.673" stroke="#FDCFD3" stroke-width="4"/>
</g>
<g opacity="0.3">
<path d="M294.201 176.601C294.201 183.048 292.165 189.33 288.383 194.551C284.601 199.773 279.266 203.666 273.14 205.676C267.014 207.686 260.41 207.71 254.27 205.744C248.13 203.778 242.768 199.923 238.948 194.729C235.129 189.535 233.047 183.268 233.001 176.821C232.954 170.374 234.945 164.077 238.69 158.828C242.434 153.58 247.741 149.648 253.852 147.594C259.963 145.54 266.567 145.469 272.721 147.391" stroke="#FDCFD3" stroke-width="4" stroke-linecap="round"/>
<path d="M281.395 151.706C286.404 155.286 290.216 160.294 292.334 166.076" stroke="#FDCFD3" stroke-width="4" stroke-linecap="round" stroke-dasharray="50 50"/>
<path d="M271.209 165.993H255.992C254.336 165.993 252.992 167.336 252.992 168.993V180.537C252.992 182.194 254.336 183.537 255.992 183.537H264.485C265.229 183.537 265.946 183.814 266.498 184.313L269.196 186.754C271.125 188.499 274.209 187.131 274.209 184.53V183.537V168.993C274.209 167.336 272.866 165.993 271.209 165.993Z" fill="white" stroke="#FDCFD3" stroke-width="4"/>
</g>
</svg>
