<svg width="1920" height="1450" viewBox="0 0 1920 1450" fill="none" xmlns="http://www.w3.org/2000/svg">
<rect width="1920" height="1450" fill="white"/>
<g opacity="0.3">
<path d="M1769.5 224H1786C1788.76 224 1791 226.239 1791 229V612C1791 614.761 1788.76 617 1786 617H1446C1443.24 617 1441 614.761 1441 612V596" stroke="#FDCFD3" stroke-width="10"/>
<path d="M1419 246H1769V591C1769 593.761 1766.76 596 1764 596H1424C1421.24 596 1419 593.761 1419 591V246Z" fill="white" stroke="#FDCFD3" stroke-width="10"/>
<path d="M1419 208C1419 205.239 1421.24 203 1424 203H1764C1766.76 203 1769 205.239 1769 208V246H1419V208Z" stroke="#FDCFD3" stroke-width="10"/>
<path d="M1674 230H1689" stroke="#FDCFD3" stroke-width="2"/>
<path d="M1735 218L1747.73 230.728M1747.73 218L1735 230.728" stroke="#FDCFD3" stroke-width="2"/>
<rect x="1706" y="218" width="12" height="12" stroke="#FDCFD3" stroke-width="2"/>
</g>
<path d="M1717 356H1865V502C1865 503.105 1864.1 504 1863 504H1719C1717.9 504 1717 503.105 1717 502V356Z" fill="white"/>
<path d="M1717 340C1717 338.895 1717.9 338 1719 338H1863C1864.1 338 1865 338.895 1865 340V356H1717V340Z" fill="white"/>
<path d="M1717 356H1865M1717 356V502C1717 503.105 1717.9 504 1719 504H1863C1864.1 504 1865 503.105 1865 502V356M1717 356V340C1717 338.895 1717.9 338 1719 338H1863C1864.1 338 1865 338.895 1865 340V356" stroke="white" stroke-width="10"/>
<g opacity="0.3">
<path d="M1717 356H1865V502C1865 503.105 1864.1 504 1863 504H1719C1717.9 504 1717 503.105 1717 502V356Z" fill="white"/>
<path d="M1717 340C1717 338.895 1717.9 338 1719 338H1863C1864.1 338 1865 338.895 1865 340V356H1717V340Z" fill="white"/>
<path d="M1717 356H1865M1717 356V502C1717 503.105 1717.9 504 1719 504H1863C1864.1 504 1865 503.105 1865 502V356M1717 356V340C1717 338.895 1717.9 338 1719 338H1863C1864.1 338 1865 338.895 1865 340V356" stroke="#FDCFD3" stroke-width="10"/>
</g>
<g opacity="0.3">
<path d="M466 753.551L468.562 764.926C468.732 765.679 469.321 766.268 470.074 766.438L481.449 769L470.074 771.562C469.321 771.732 468.732 772.321 468.562 773.074L466 784.449L463.438 773.074C463.268 772.321 462.679 771.732 461.926 771.562L450.551 769L461.926 766.438C462.679 766.268 463.268 765.679 463.438 764.926L466 753.551Z" fill="#FDCFD3" stroke="#FDCFD3" stroke-width="2"/>
<circle cx="444.5" cy="785.5" r="3.5" fill="#FDCFD3"/>
</g>
<g opacity="0.3">
<path d="M544.784 817V840.601C544.784 841.706 545.679 842.601 546.784 842.601H574M544.784 817L574 842.601M544.784 817H482C480.895 817 480 817.895 480 819V937C480 938.105 480.895 939 482 939H572C573.105 939 574 938.105 574 937V842.601" stroke="#FDCFD3" stroke-width="10"/>
<path d="M592 919H502C500.895 919 500 918.105 500 917V799C500 797.895 500.895 797 502 797H564.784L594 822.601V917C594 918.105 593.105 919 592 919Z" fill="white"/>
<path d="M564.784 797V820.601C564.784 821.706 565.679 822.601 566.784 822.601H594M564.784 797L594 822.601M564.784 797H502C500.895 797 500 797.895 500 799V917C500 918.105 500.895 919 502 919H592C593.105 919 594 918.105 594 917V822.601" stroke="#FDCFD3" stroke-width="10"/>
<path d="M522 899H612C613.105 899 614 898.105 614 897V803.508C614 802.931 613.751 802.383 613.318 802.003L585.35 777.496C584.985 777.176 584.516 777 584.032 777H522C520.895 777 520 777.895 520 779V897C520 898.105 520.895 899 522 899Z" fill="white" stroke="#FDCFD3" stroke-width="10"/>
<path d="M584.784 777V800.601C584.784 801.706 585.679 802.601 586.784 802.601H614" stroke="#FDCFD3" stroke-width="10"/>
</g>
<g opacity="0.3">
<path d="M317 321C317 336.802 312.009 352.199 302.74 364.997C293.47 377.794 280.395 387.336 265.381 392.262C250.367 397.188 234.181 397.247 219.132 392.429C204.083 387.611 190.94 378.162 181.578 365.432C172.217 352.702 167.116 337.341 167.002 321.539C166.888 305.738 171.768 290.305 180.946 277.441C190.123 264.578 203.128 254.942 218.107 249.908C233.085 244.874 249.271 244.699 264.354 249.409" stroke="#FDCFD3" stroke-width="10" stroke-linecap="round"/>
<path d="M285.613 259.985C297.89 268.76 307.234 281.034 312.424 295.204" stroke="#FDCFD3" stroke-width="10" stroke-linecap="round" stroke-dasharray="50 50"/>
<path d="M265 295H219C217.343 295 216 296.343 216 298V335C216 336.657 217.343 338 219 338H245.844C246.588 338 247.305 338.276 247.857 338.775L262.987 352.465C264.916 354.21 268 352.841 268 350.24V338V298C268 296.343 266.657 295 265 295Z" fill="white" stroke="#FDCFD3" stroke-width="10"/>
</g>
</svg>
