<svg width="49" height="68" viewBox="0 0 49 68" fill="none" xmlns="http://www.w3.org/2000/svg">
<path d="M24.1084 64.4227C26.8813 62.7396 28.8722 60.0238 29.6429 56.873C30.4136 53.7222 29.901 50.3943 28.218 47.6214L16.1606 27.757M24.1084 64.4227C21.3354 66.1059 18.0074 66.6186 14.8565 65.848C11.7056 65.0775 8.98993 63.0869 7.30688 60.3141L2.35703 52.1592C2.00656 51.5818 2.19055 50.8296 2.76799 50.4791L12.178 44.7674M24.1084 64.4227C40.7327 54.3321 51.6299 50.0175 44.2051 37.7853L35.892 24.0893M16.1606 27.757C15.8102 27.1796 15.9942 26.4274 16.5716 26.0769M16.1606 27.757L26.3689 44.5751C26.7193 45.1525 26.5353 45.9047 25.9579 46.2552L17.8026 51.2053C17.2251 51.5558 16.4729 51.3719 16.1224 50.7945L4.06513 30.93C2.38208 28.1572 1.86952 24.8293 2.64022 21.6785C3.41092 18.5276 5.40173 15.8119 8.17471 14.1288M16.5716 26.0769L25.9816 20.3652M16.5716 26.0769L26.1907 20.2383M8.17471 14.1288C10.9477 12.4456 14.2757 11.9329 17.4266 12.7035C20.5775 13.474 23.2932 15.4646 24.9762 18.2374L26.1907 20.2383M8.17471 14.1288C24.799 4.03816 33.5386 -3.83105 40.9634 8.40124L45.9133 16.5561C46.2637 17.1335 46.0774 17.8871 45.5 18.2376L31.6085 26.8018C31.031 27.1523 30.2765 26.9696 29.926 26.3922L26.1907 20.2383" stroke="#181818" stroke-width="3.5"/>
</svg>
